<svg width="512" height="512" viewBox="0 0 512 512" fill="none" xmlns="http://www.w3.org/2000/svg">
<g clip-path="url(#clip0_59_1457)">
<path d="M441.351 503.67H67.8788C30.4762 503.67 0 473.128 0 435.644V68.026C0 30.5423 30.4762 0 67.8788 0H441.351C478.753 0 509.23 30.5423 509.23 68.026V435.644C509.23 473.128 478.753 503.67 441.351 503.67Z" fill="url(#paint0_linear_59_1457)"/>
<path d="M441.351 503.67H67.8788C30.4762 503.67 0 473.128 0 435.644V68.026C0 30.5423 30.4762 0 67.8788 0H441.351C478.753 0 509.23 30.5423 509.23 68.026V435.644C509.23 473.128 478.753 503.67 441.351 503.67Z" stroke="url(#paint1_linear_59_1457)" stroke-width="0.260304" stroke-miterlimit="10"/>
<path d="M439.688 512.002H70.9264C31.8614 512.002 0 480.349 0 440.922V344.297C0 342.353 1.6623 340.688 3.6017 340.688H508.398C510.338 340.688 512 342.353 512 344.297V439.256C512 479.516 479.584 512.002 439.688 512.002Z" fill="url(#paint2_linear_59_1457)"/>
<path opacity="0.9" d="M493.714 157.434C505.905 243.23 357.957 277.381 351.03 279.325C58.4587 351.794 29.9219 224.071 29.9219 224.071C82.5626 334.857 415.584 266.553 425.281 179.091C434.424 96.6265 309.472 104.401 309.472 104.401C309.472 104.401 483.186 84.4096 493.714 157.434Z" fill="url(#paint3_linear_59_1457)"/>
<path d="M211.948 89.9594C256.554 86.0722 318.337 85.2392 309.471 107.729C295.896 142.714 168.45 164.094 168.45 164.094L211.948 89.9594ZM144.346 192.137C149.333 191.304 249.904 174.367 277.056 166.037C321.108 152.71 352.969 119.113 333.852 84.1286C315.013 49.6991 239.93 37.2045 171.22 44.7013C102.51 52.198 82.5623 68.5798 74.5277 79.6861C66.216 91.0701 60.1208 114.671 62.6143 117.447C65.1078 120.224 106.666 125.5 129.385 114.949C129.385 114.949 126.06 106.896 128.831 104.953C131.878 103.009 170.112 92.736 175.099 95.7902C180.086 98.8444 143.515 160.207 126.337 170.48C109.16 181.031 111.653 179.087 106.389 179.087C101.125 179.087 101.679 179.087 97.2463 182.697C92.8134 186.306 71.7571 201.3 76.4671 207.686C81.177 214.35 86.1641 214.35 87.8264 216.293C89.4887 218.237 90.597 221.291 87.8264 226.289C85.0558 231.287 54.8567 284.597 53.7485 287.096C52.6402 289.317 47.6532 302.645 62.6143 298.758C77.5753 294.87 114.701 228.788 114.701 228.788C114.701 228.788 115.809 226.567 118.303 228.233C120.796 229.899 281.766 303.2 281.766 303.2C281.766 303.2 285.645 304.866 288.138 299.868C290.632 294.87 292.571 268.215 277.056 253.222C261.264 237.951 142.684 195.747 142.684 195.747C142.684 195.747 139.359 192.97 144.346 192.137Z" fill="black"/>
<path d="M400.07 213.516L403.949 247.945C404.78 257.663 405.611 263.494 406.165 269.325H406.719C408.936 263.772 411.429 257.663 416.139 247.945L432.762 213.238H460.191L413.923 292.371H388.988L375.135 213.516H400.07Z" fill="black"/>
<path d="M353.524 192.137L349.091 213.516H367.654L363.775 231.286H345.49L339.671 257.941C338.84 261.273 338.286 265.161 338.286 267.937C338.286 271.824 340.225 274.601 345.767 274.601C347.983 274.601 350.477 274.601 352.693 274.323L349.922 292.649C346.598 293.759 340.226 294.315 334.961 294.315C319.723 294.315 312.243 287.095 312.243 277.1C312.243 272.935 312.797 268.492 314.182 262.662L320.832 231.286H310.026L313.628 213.516H324.71L327.758 198.523L353.524 192.137Z" fill="black"/>
<path d="M208.07 84.4089C252.676 80.5217 314.459 79.6887 305.594 102.179C292.018 137.164 164.572 158.821 164.572 158.821L208.07 84.4089ZM140.468 186.309C145.455 185.476 246.026 168.539 273.178 160.209C317.23 146.882 349.091 113.285 329.975 78.3005C311.135 43.871 236.052 31.3764 167.342 38.8732C98.6325 46.3699 78.9615 62.7517 70.6498 73.858C62.3381 85.2419 56.2429 109.12 58.7364 111.619C61.2299 114.118 102.788 119.671 125.507 109.12C125.507 109.12 122.182 101.068 124.953 99.1248C128 97.1812 166.234 86.9079 171.221 89.9621C176.208 93.0163 139.637 154.379 122.459 164.652C105.282 174.925 107.775 172.982 102.511 172.982C97.2472 172.982 97.8013 172.982 93.3684 176.591C88.9355 179.923 67.8793 195.194 72.5892 201.58C77.2992 208.244 82.2862 208.244 83.6715 210.188C85.3338 212.131 86.442 215.185 83.6715 220.183C80.9009 225.181 50.7018 278.491 49.5935 280.99C48.4853 283.212 43.4983 296.539 58.1823 292.652C73.1433 288.765 110.269 222.682 110.269 222.682C110.269 222.682 111.377 220.461 113.871 222.127C116.364 223.793 277.334 297.094 277.334 297.094C277.334 297.094 281.213 298.76 283.706 293.763C286.2 288.765 288.139 262.11 272.347 247.116C256.555 231.845 137.974 189.641 137.974 189.641C137.974 189.641 135.481 187.42 140.468 186.309Z" fill="white"/>
<path d="M396.19 207.688L400.069 242.117C400.9 251.835 401.731 257.666 402.285 263.497H402.839C405.056 257.944 407.549 251.835 412.259 242.117L428.883 207.41H456.311L410.043 286.265H385.108L371.255 207.41H396.19V207.688Z" fill="white"/>
<path d="M349.645 186.309L345.212 207.688H363.775L359.896 225.458H341.61L335.792 252.113C334.961 255.445 334.407 259.332 334.407 262.109C334.407 265.996 336.069 268.773 341.887 268.773C344.104 268.773 346.597 268.773 348.814 268.495L346.043 286.82C342.719 287.931 336.346 288.486 331.082 288.486C315.844 288.486 308.364 281.267 308.364 271.272C308.364 267.107 308.918 262.664 310.303 256.834L316.675 225.458H305.87L309.472 207.688H320.554L323.879 192.972L349.645 186.309Z" fill="white"/>
<path d="M275.394 432.035C276.502 428.98 277.333 426.759 278.164 424.26C282.043 413.154 285.645 402.048 289.523 390.664C290.632 387.887 290.355 387.887 293.402 387.887C297.835 387.887 301.991 387.887 306.424 387.887C307.255 387.887 307.809 387.887 308.917 387.887C313.627 402.881 318.337 417.596 322.77 432.312H323.047C323.601 430.924 324.155 429.258 324.71 427.87C328.865 415.097 333.021 402.603 337.177 389.831C337.731 388.165 337.731 388.165 339.394 388.165C344.658 388.165 349.922 388.165 355.186 388.165C355.74 388.165 356.017 388.165 356.848 388.442C356.294 390.386 355.74 392.052 355.186 393.718C350.476 408.156 345.766 422.872 340.779 437.31C338.562 443.696 336.623 450.082 334.407 456.468C333.852 458.412 333.852 458.412 331.913 458.412C325.818 458.412 319.723 458.412 313.35 458.412C311.965 458.412 311.688 457.857 311.411 456.746C310.303 453.136 309.194 449.249 307.809 445.64C305.039 436.477 301.991 427.037 298.943 417.874C298.666 417.319 298.666 417.041 298.112 416.208C297.835 417.319 297.558 417.874 297.281 418.429C294.233 427.592 291.186 436.477 288.138 445.64C287.03 449.249 285.922 452.859 284.536 456.191C283.982 457.857 283.982 457.857 282.32 457.857C276.225 457.857 269.852 457.857 263.757 457.857C262.649 457.857 262.372 457.301 262.095 456.468C261.264 453.969 260.432 451.471 259.601 448.694C254.614 433.423 249.627 418.152 244.64 402.881C242.978 397.883 241.593 393.163 239.653 387.887C240.207 387.887 240.762 387.609 241.316 387.609C247.134 387.609 252.952 387.609 258.77 387.609C260.433 387.609 260.432 387.609 260.987 389.275C265.142 402.603 269.298 415.653 273.454 428.98C274.562 429.813 274.839 430.646 275.394 432.035Z" fill="url(#paint4_radial_59_1457)"/>
<path d="M164.855 457.58C164.024 457.58 163.47 457.58 162.639 457.58C158.483 457.58 154.327 457.58 150.171 457.58C148.786 457.58 147.955 457.303 147.124 456.192C142.414 450.361 137.427 444.53 132.717 438.977C128.007 433.147 123.02 427.316 118.31 421.763C118.033 421.485 117.756 421.207 117.201 420.93C116.924 427.316 117.201 433.424 117.201 439.533C117.201 445.641 117.201 451.472 117.201 457.858C110.552 457.858 104.18 457.858 98.0845 457.858C97.5304 456.47 97.5304 391.22 98.0845 388.166C98.6386 388.166 99.1928 387.888 99.7469 387.888C104.18 387.888 108.336 387.888 112.769 387.888C113.877 387.888 114.708 388.444 115.539 389.277C119.695 394.274 123.851 399.272 128.007 404.27C133.548 410.934 139.089 417.32 144.353 423.984C144.63 424.261 144.63 424.261 144.907 424.539C145.738 423.984 145.461 423.151 145.461 422.318C145.461 411.767 145.461 401.494 145.461 390.943C145.461 390.11 145.461 389.277 145.461 388.444C147.124 387.888 162.362 387.611 164.855 388.166C164.855 411.212 164.855 434.257 164.855 457.58Z" fill="url(#paint5_radial_59_1457)"/>
<path d="M179.256 457.579C179.256 434.256 179.256 411.21 179.256 387.887C183.966 387.609 188.399 387.887 193.109 387.609C197.819 387.609 202.252 387.609 206.961 387.609C211.671 387.609 216.104 387.609 220.814 387.609C225.524 387.609 229.957 387.609 234.667 387.609C234.667 392.885 234.667 397.605 234.667 402.881C228.849 403.158 222.754 402.881 216.936 402.881C211.117 402.881 205.299 402.881 199.204 402.881C199.204 406.768 199.204 410.655 199.204 414.542C209.455 414.542 219.983 414.542 230.511 414.542C230.511 419.54 230.511 424.26 230.511 429.258C229.68 429.258 228.849 429.536 228.018 429.536C219.429 429.536 210.563 429.536 201.975 429.536C201.143 429.536 200.312 429.536 199.481 429.536C198.927 430.924 198.65 438.698 199.204 442.308C211.394 442.308 223.585 442.308 235.775 442.308C235.775 447.583 235.775 452.304 235.775 457.301C234.39 457.857 182.026 457.857 179.256 457.579Z" fill="url(#paint6_radial_59_1457)"/>
<path d="M411.152 407.046C408.935 406.213 406.996 405.102 404.779 404.547C398.407 402.325 392.035 401.215 385.386 402.881C383.723 403.158 382.338 403.991 381.23 405.102C379.29 407.323 379.567 410.377 382.338 411.766C384.554 412.876 387.048 413.709 389.541 414.265C393.42 415.375 397.299 415.931 401.178 417.041C405.056 418.152 408.935 419.54 412.537 421.761C416.97 424.538 419.463 428.703 420.018 433.978C421.126 443.141 416.97 450.638 408.935 455.08C404.502 457.579 399.515 458.69 394.251 459.245C385.663 460.078 377.628 458.968 369.316 456.746C365.714 455.636 361.005 453.414 358.788 451.748C361.005 447.028 362.944 442.308 365.437 437.31C366.823 437.866 367.931 438.699 369.039 439.254C375.966 442.863 383.446 444.529 391.481 443.974C393.143 443.974 394.805 443.419 396.468 443.141C397.299 442.863 398.407 442.308 398.961 441.475C400.624 439.809 400.347 437.033 398.684 435.644C396.745 433.701 393.974 433.145 391.481 432.59C386.771 431.479 382.061 430.369 377.351 429.258C372.918 428.148 368.762 426.204 365.437 423.15C362.667 420.651 361.005 417.597 360.45 413.709C359.065 403.991 362.944 396.217 371.256 391.497C376.52 388.72 382.338 387.332 388.156 387.054C395.36 386.777 402.286 387.332 409.212 389.553C411.429 390.386 413.645 391.497 415.862 392.33C416.693 392.607 417.247 393.163 416.693 393.996C414.753 398.438 412.814 402.881 411.152 407.323C411.429 406.768 411.152 406.768 411.152 407.046Z" fill="url(#paint7_radial_59_1457)"/>
<path d="M272.069 430.367C273.178 427.312 274.009 425.091 274.84 422.592C278.719 411.486 282.32 400.38 286.199 388.996C287.307 386.219 287.03 386.219 290.078 386.219C294.511 386.219 298.667 386.219 303.1 386.219C303.931 386.219 304.485 386.219 305.593 386.219C310.303 401.213 315.013 415.928 319.446 430.644H319.723C320.277 429.256 320.831 427.59 321.385 426.202C325.541 413.429 329.697 400.935 333.853 388.163C334.407 386.497 334.407 386.497 336.069 386.497C341.333 386.497 346.598 386.497 351.862 386.497C352.416 386.497 352.693 386.497 353.524 386.774C352.97 388.718 352.416 390.384 351.862 392.05C347.152 406.488 342.442 421.204 337.455 435.642C335.238 442.028 333.299 448.414 331.082 454.8C330.528 456.744 330.528 456.744 328.589 456.744C322.494 456.744 316.398 456.744 310.026 456.744C308.641 456.744 308.364 456.189 308.087 455.078C306.978 451.469 305.87 447.581 304.485 443.972C301.714 434.809 298.667 425.369 295.619 416.206C295.342 415.651 295.342 415.373 294.788 414.54C294.511 415.651 294.234 416.206 293.957 416.761C290.909 425.924 287.862 434.809 284.814 443.972C283.706 447.581 282.598 451.191 281.212 454.523C280.658 456.189 280.658 456.189 278.996 456.189C272.901 456.189 266.528 456.189 260.433 456.189C259.325 456.189 259.048 455.633 258.771 454.8C257.94 452.301 257.108 449.803 256.277 447.026C251.29 431.755 246.303 416.484 241.316 401.213C239.654 396.215 238.268 391.495 236.329 386.219C236.883 386.219 237.437 385.941 237.991 385.941C243.81 385.941 249.628 385.941 255.446 385.941C257.108 385.941 257.108 385.941 257.662 387.607C261.818 400.935 265.974 413.985 270.13 427.312C270.961 428.145 271.515 428.978 272.069 430.367Z" fill="white"/>
<path d="M161.523 455.912C160.692 455.912 160.138 455.912 159.307 455.912C155.151 455.912 150.995 455.912 146.839 455.912C145.454 455.912 144.623 455.635 143.791 454.524C139.081 448.693 134.094 442.862 129.385 437.309C124.675 431.478 119.688 425.648 114.978 420.094C114.701 419.817 114.423 419.539 113.869 419.262C113.592 425.648 113.869 431.756 113.869 437.865C113.869 443.973 113.869 449.804 113.869 456.19C107.22 456.19 100.848 456.19 94.7525 456.19C94.1984 454.802 94.1984 389.552 94.7525 386.498C95.3066 386.498 95.8607 386.22 96.4148 386.22C100.848 386.22 105.004 386.22 109.436 386.22C110.545 386.22 111.376 386.776 112.207 387.609C116.363 392.606 120.519 397.604 124.675 402.602C130.216 409.266 135.757 415.652 141.021 422.316C141.298 422.593 141.298 422.593 141.575 422.871C142.406 422.316 142.129 421.483 142.129 420.65C142.129 410.099 142.129 399.826 142.129 389.275C142.129 388.442 142.129 387.609 142.129 386.776C143.791 386.22 159.03 385.943 161.523 386.498C161.523 409.544 161.523 432.589 161.523 455.912Z" fill="white"/>
<path d="M175.931 455.911C175.931 432.588 175.931 409.542 175.931 386.219C180.641 385.941 185.074 386.219 189.783 385.941C194.493 385.941 198.926 385.941 203.636 385.941C208.346 385.941 212.779 385.941 217.489 385.941C222.199 385.941 226.632 385.941 231.342 385.941C231.342 391.217 231.342 395.937 231.342 401.213C225.524 401.49 219.429 401.213 213.61 401.213C207.792 401.213 201.974 401.213 195.879 401.213C195.879 405.1 195.879 408.987 195.879 412.874C206.13 412.874 216.658 412.874 227.186 412.874C227.186 417.872 227.186 422.592 227.186 427.59C226.355 427.59 225.524 427.868 224.693 427.868C216.104 427.868 207.238 427.868 198.649 427.868C197.818 427.868 196.987 427.868 196.156 427.868C195.602 429.256 195.325 437.03 195.879 440.64C208.069 440.64 220.26 440.64 232.45 440.64C232.45 445.915 232.45 450.636 232.45 455.633C231.065 456.189 178.424 456.466 175.931 455.911Z" fill="white"/>
<path d="M407.55 405.382C405.334 404.549 403.394 403.438 401.178 402.883C394.806 400.661 388.433 399.551 381.784 401.217C380.122 401.494 378.736 402.327 377.628 403.438C375.689 405.659 375.966 408.713 378.736 410.102C380.953 411.212 383.446 412.045 385.94 412.601C389.819 413.711 393.697 414.267 397.576 415.377C401.455 416.488 405.334 417.876 408.936 420.097C413.368 422.874 415.862 427.039 416.416 432.314C417.524 441.477 413.368 448.974 405.334 453.416C400.901 455.915 395.914 457.026 390.65 457.581C382.061 458.414 374.026 457.303 365.715 455.082C362.113 453.972 357.403 451.75 355.187 450.084C357.403 445.364 359.342 440.644 361.836 435.646C363.221 436.201 364.329 437.034 365.438 437.59C372.364 441.199 379.845 442.865 387.879 442.31C389.542 442.31 391.204 441.755 392.866 441.477C393.697 441.199 394.806 440.644 395.36 439.811C397.022 438.145 396.745 435.368 395.083 433.98C393.143 432.037 390.373 431.481 387.879 430.926C383.169 429.815 378.459 428.705 373.749 427.594C369.316 426.483 365.161 424.54 361.836 421.486C359.065 418.987 357.403 415.933 356.849 412.045C355.464 402.327 359.342 394.553 367.654 389.833C372.918 387.056 378.736 385.668 384.555 385.39C391.758 385.113 398.684 385.668 405.611 387.889C407.827 388.722 410.044 389.833 412.26 390.666C413.091 390.943 413.645 391.499 413.091 392.332C411.152 396.774 409.213 401.217 407.55 405.659C407.827 405.104 407.827 405.104 407.55 405.382Z" fill="white"/>
<path d="M469.056 503.67H42.6668C36.8486 503.67 32.1387 498.95 32.1387 493.119V491.176H480.416V492.564C480.416 498.673 475.429 503.67 469.056 503.67Z" fill="#F05248"/>
<path d="M8.86523 338.742H501.194V349.293H8.86523V338.742Z" fill="url(#paint8_linear_59_1457)"/>
<path d="M506.188 338.742V441.753C506.188 477.571 477.097 506.725 441.356 506.725H70.101C32.9755 506.725 2.77637 476.46 2.77637 439.254V339.02" stroke="url(#paint9_linear_59_1457)" stroke-width="0.433839" stroke-miterlimit="10"/>
</g>
<defs>
<linearGradient id="paint0_linear_59_1457" x1="0.0748052" y1="251.857" x2="509.096" y2="251.857" gradientUnits="userSpaceOnUse">
<stop stop-color="#165DA8"/>
<stop offset="0.1451" stop-color="#1761AB"/>
<stop offset="0.3569" stop-color="#196AB2"/>
<stop offset="0.6095" stop-color="#1D7BBE"/>
<stop offset="0.8914" stop-color="#2094D2"/>
<stop offset="0.9944" stop-color="#229FDA"/>
</linearGradient>
<linearGradient id="paint1_linear_59_1457" x1="-4.08104" y1="251.857" x2="513.252" y2="251.857" gradientUnits="userSpaceOnUse">
<stop stop-color="#25B0E6"/>
<stop offset="1" stop-color="#165DA8"/>
</linearGradient>
<linearGradient id="paint2_linear_59_1457" x1="256.105" y1="803.931" x2="256.105" y2="256.611" gradientUnits="userSpaceOnUse">
<stop offset="0.5744" stop-color="#EC2027"/>
<stop offset="0.6006" stop-color="#E12227"/>
<stop offset="0.6366" stop-color="#CD2527"/>
<stop offset="0.6783" stop-color="#AF2827"/>
<stop offset="0.7243" stop-color="#872523"/>
<stop offset="0.7731" stop-color="#5B1C1B"/>
<stop offset="0.7977" stop-color="#451414"/>
<stop offset="0.8013" stop-color="#441615"/>
<stop offset="0.8372" stop-color="#3C1F1C"/>
<stop offset="0.8727" stop-color="#321F1D"/>
<stop offset="0.9073" stop-color="#261C1B"/>
<stop offset="0.9407" stop-color="#161212"/>
<stop offset="0.9722" stop-color="#060505"/>
<stop offset="1"/>
</linearGradient>
<linearGradient id="paint3_linear_59_1457" x1="30.013" y1="201.627" x2="494.29" y2="201.627" gradientUnits="userSpaceOnUse">
<stop offset="0.005618" stop-color="#0066B3"/>
<stop offset="0.5169" stop-color="#00AEEF"/>
<stop offset="0.5794" stop-color="#00B1F0"/>
<stop offset="0.701" stop-color="#00BBF2"/>
<stop offset="0.8679" stop-color="#66CEF6"/>
<stop offset="1" stop-color="#ABE1FA"/>
</linearGradient>
<radialGradient id="paint4_radial_59_1457" cx="0" cy="0" r="1" gradientUnits="userSpaceOnUse" gradientTransform="translate(298.69 422.677) scale(48.1202 47.7424)">
<stop offset="0.5744"/>
<stop offset="0.7977"/>
<stop offset="1"/>
</radialGradient>
<radialGradient id="paint5_radial_59_1457" cx="0" cy="0" r="1" gradientUnits="userSpaceOnUse" gradientTransform="translate(131.29 422.643) scale(34.4996 34.2287)">
<stop offset="0.5744"/>
<stop offset="0.7977"/>
<stop offset="1"/>
</radialGradient>
<radialGradient id="paint6_radial_59_1457" cx="0" cy="0" r="1" gradientUnits="userSpaceOnUse" gradientTransform="translate(207.589 422.655) scale(32.0366 31.785)">
<stop offset="0.5744"/>
<stop offset="0.7977"/>
<stop offset="1"/>
</radialGradient>
<radialGradient id="paint7_radial_59_1457" cx="0" cy="0" r="1" gradientUnits="userSpaceOnUse" gradientTransform="translate(389.696 422.65) scale(33.8059 33.5404)">
<stop offset="0.5744"/>
<stop offset="0.7977"/>
<stop offset="1"/>
</radialGradient>
<linearGradient id="paint8_linear_59_1457" x1="255.014" y1="321.052" x2="255.014" y2="354.418" gradientUnits="userSpaceOnUse">
<stop stop-color="#EC2027"/>
<stop offset="0.0936126" stop-color="#E12227"/>
<stop offset="0.2222" stop-color="#CD2527"/>
<stop offset="0.3711" stop-color="#AF2827"/>
<stop offset="0.5353" stop-color="#872523"/>
<stop offset="0.7099" stop-color="#5B1C1B"/>
<stop offset="0.7977" stop-color="#451414"/>
</linearGradient>
<linearGradient id="paint9_linear_59_1457" x1="39.8315" y1="535.263" x2="480.218" y2="281.556" gradientUnits="userSpaceOnUse">
<stop stop-color="#9D2123"/>
<stop offset="1" stop-color="#561416"/>
</linearGradient>
<clipPath id="clip0_59_1457">
<rect width="512" height="512" fill="white"/>
</clipPath>
</defs>
</svg>
